{
  "accessors": [
    {
      "bufferView": 2,
      "componentType": 5126,
      "count": 2460,
      "max": [
        20.49049949645996,
        1.5898549556732178,
        25.50944709777832
      ],
      "min": [
        -24.568708419799805,
        -55.71769332885742,
        -23.11069679260254
      ],
      "type": "VEC3"
    },
    {
      "bufferView": 2,
      "byteOffset": 29520,
      "componentType": 5126,
      "count": 2460,
      "max": [
        0.9993104338645935,
        0.9967707395553589,
        0.9991734623908997
      ],
      "min": [
        -0.9986312985420227,
        -0.9996852874755859,
        -0.9992521405220032
      ],
      "type": "VEC3"
    },
    {
      "bufferView": 1,
      "componentType": 5126,
      "count": 2460,
      "max": [
        0.9996140003204346,
        0.9434810280799866
      ],
      "min": [
        0.00012199999764561653,
        0.00036899998667649925
      ],
      "type": "VEC2"
    },
    {
      "bufferView": 0,
      "componentType": 5125,
      "count": 2460,
      "type": "SCALAR"
    },
    {
      "bufferView": 2,
      "byteOffset": 59040,
      "componentType": 5126,
      "count": 65532,
      "max": [
        20.85497283935547,
        3.4229419231414795,
        25.50946044921875
      ],
      "min": [
        -25.191795349121094,
        -56.51962661743164,
        -23.11069679260254
      ],
      "type": "VEC3"
    },
    {
      "bufferView": 2,
      "byteOffset": 845424,
      "componentType": 5126,
      "count": 65532,
      "max": [
        0.9999826550483704,
        0.9999992251396179,
        0.9999998211860657
      ],
      "min": [
        -0.9999995827674866,
        -1.0,
        -0.9999991655349731
      ],
      "type": "VEC3"
    },
    {
      "bufferView": 1,
      "byteOffset": 19680,
      "componentType": 5126,
      "count": 65532,
      "max": [
        0.9996200203895569,
        0.9581300020217896
      ],
      "min": [
        0.00012199999764561653,
        0.00037299998803064227
      ],
      "type": "VEC2"
    },
    {
      "bufferView": 0,
      "byteOffset": 9840,
      "componentType": 5125,
      "count": 256965,
      "type": "SCALAR"
    },
    {
      "bufferView": 2,
      "byteOffset": 1631808,
      "componentType": 5126,
      "count": 65533,
      "max": [
        20.842716217041016,
        -0.9670460224151611,
        24.94763946533203
      ],
      "min": [
        -18.71704864501953,
        -52.19138717651367,
        -20.045148849487305
      ],
      "type": "VEC3"
    },
    {
      "bufferView": 2,
      "byteOffset": 2418204,
      "componentType": 5126,
      "count": 65533,
      "max": [
        0.9998158812522888,
        0.9997769594192505,
        0.9999797940254211
      ],
      "min": [
        -0.9999328255653381,
        -0.9999999403953552,
        -0.9999716877937317
      ],
      "type": "VEC3"
    },
    {
      "bufferView": 1,
      "byteOffset": 543936,
      "componentType": 5126,
      "count": 65533,
      "max": [
        0.9996200203895569,
        0.9757080078125
      ],
      "min": [
        0.00012199999764561653,
        0.00037299998803064227
      ],
      "type": "VEC2"
    },
    {
      "bufferView": 0,
      "byteOffset": 1037700,
      "componentType": 5125,
      "count": 255585,
      "type": "SCALAR"
    },
    {
      "bufferView": 2,
      "byteOffset": 3204600,
      "componentType": 5126,
      "count": 65532,
      "max": [
        15.468255043029785,
        -1.166638970375061,
        22.408849716186523
      ],
      "min": [
        -20.901344299316406,
        -24.573347091674805,
        -18.72759437561035
      ],
      "type": "VEC3"
    },
    {
      "bufferView": 2,
      "byteOffset": 3990984,
      "componentType": 5126,
      "count": 65532,
      "max": [
        0.9999464154243469,
        0.9999256134033203,
        0.9999242424964905
      ],
      "min": [
        -0.9998829364776611,
        -0.9999999403953552,
        -0.9999948143959045
      ],
      "type": "VEC3"
    },
    {
      "bufferView": 1,
      "byteOffset": 1068200,
      "componentType": 5126,
      "count": 65532,
      "max": [
        0.9996060132980347,
        0.9654539823532104
      ],
      "min": [
        0.00012199999764561653,
        0.00036800000816583633
      ],
      "type": "VEC2"
    },
    {
      "bufferView": 0,
      "byteOffset": 2060040,
      "componentType": 5125,
      "count": 241806,
      "type": "SCALAR"
    },
    {
      "bufferView": 2,
      "byteOffset": 4777368,
      "componentType": 5126,
      "count": 65532,
      "max": [
        15.533276557922363,
        -1.132828950881958,
        21.774551391601563
      ],
      "min": [
        -21.076156616210938,
        -52.56403350830078,
        -19.213298797607422
      ],
      "type": "VEC3"
    },
    {
      "bufferView": 2,
      "byteOffset": 5563752,
      "componentType": 5126,
      "count": 65532,
      "max": [
        0.9999869465827942,
        0.9999296069145203,
        0.9999757409095764
      ],
      "min": [
        -0.9998993873596191,
        -0.9999995827674866,
        -0.9999716877937317
      ],
      "type": "VEC3"
    },
    {
      "bufferView": 1,
      "byteOffset": 1592456,
      "componentType": 5126,
      "count": 65532,
      "max": [
        0.999629020690918,
        0.9735109806060791
      ],
      "min": [
        0.00012199999764561653,
        0.00036800000816583633
      ],
      "type": "VEC2"
    },
    {
      "bufferView": 0,
      "byteOffset": 3027264,
      "componentType": 5125,
      "count": 206487,
      "type": "SCALAR"
    },
    {
      "bufferView": 2,
      "byteOffset": 6350136,
      "componentType": 5126,
      "count": 65532,
      "max": [
        9.13909912109375,
        -1.036957025527954,
        25.037391662597656
      ],
      "min": [
        -20.003684997558594,
        -17.395427703857422,
        -3.394284963607788
      ],
      "type": "VEC3"
    },
    {
      "bufferView": 2,
      "byteOffset": 7136520,
      "componentType": 5126,
      "count": 65532,
      "max": [
        0.9999209642410278,
        0.9995788335800171,
        0.9999656677246094
      ],
      "min": [
        -0.9999610185623169,
        -0.9999994039535522,
        -0.9999416470527649
      ],
      "type": "VEC3"
    },
    {
      "bufferView": 1,
      "byteOffset": 2116712,
      "componentType": 5126,
      "count": 65532,
      "max": [
        0.9996240139007568,
        0.9691159725189209
      ],
      "min": [
        0.00012199999764561653,
        0.00036700000055134296
      ],
      "type": "VEC2"
    },
    {
      "bufferView": 0,
      "byteOffset": 3853212,
      "componentType": 5125,
      "count": 188529,
      "type": "SCALAR"
    },
    {
      "bufferView": 2,
      "byteOffset": 7922904,
      "componentType": 5126,
      "count": 65534,
      "max": [
        15.555241584777832,
        -1.1122859716415405,
        12.733729362487793
      ],
      "min": [
        -16.755573272705078,
        -52.47365188598633,
        -19.695606231689453
      ],
      "type": "VEC3"
    },
    {
      "bufferView": 2,
      "byteOffset": 8709312,
      "componentType": 5126,
      "count": 65534,
      "max": [
        0.9999695420265198,
        0.9998679161071777,
        0.9999912977218628
      ],
      "min": [
        -0.9999721646308899,
        -0.9999995827674866,
        -0.9999507665634155
      ],
      "type": "VEC3"
    },
    {
      "bufferView": 1,
      "byteOffset": 2640968,
      "componentType": 5126,
      "count": 65534,
      "max": [
        0.9996299743652344,
        0.9669190049171448
      ],
      "min": [
        0.00012199999764561653,
        0.000371000001905486
      ],
      "type": "VEC2"
    },
    {
      "bufferView": 0,
      "byteOffset": 4607328,
      "componentType": 5125,
      "count": 186882,
      "type": "SCALAR"
    },
    {
      "bufferView": 2,
      "byteOffset": 9495720,
      "componentType": 5126,
      "count": 52454,
      "max": [
        15.589986801147461,
        -1.3311669826507568,
        6.6304521560668945
      ],
      "min": [
        -5.377091884613037,
        -52.654808044433594,
        -14.54938793182373
      ],
      "type": "VEC3"
    },
    {
      "bufferView": 2,
      "byteOffset": 10125168,
      "componentType": 5126,
      "count": 52454,
      "max": [
        0.9999951720237732,
        0.9999935626983643,
        0.9999757409095764
      ],
      "min": [
        -0.9992971420288086,
        -0.9999846816062927,
        -0.999880313873291
      ],
      "type": "VEC3"
    },
    {
      "bufferView": 1,
      "byteOffset": 3165240,
      "componentType": 5126,
      "count": 52454,
      "max": [
        0.999629020690918,
        0.9720460176467896
      ],
      "min": [
        0.00012199999764561653,
        0.00040499999886378646
      ],
      "type": "VEC2"
    },
    {
      "bufferView": 0,
      "byteOffset": 5354856,
      "componentType": 5125,
      "count": 157701,
      "type": "SCALAR"
    },
    {
      "bufferView": 2,
      "byteOffset": 10754616,
      "componentType": 5126,
      "count": 641,
      "max": [
        20.85497283935547,
        3.4229419231414795,
        25.50946044921875
      ],
      "min": [
        -21.226104736328125,
        -55.6550407409668,
        -22.97865867614746
      ],
      "type": "VEC3"
    },
    {
      "bufferView": 2,
      "byteOffset": 10762308,
      "componentType": 5126,
      "count": 641,
      "max": [
        0.9983789920806885,
        1.0,
        0.9991957545280457
      ],
      "min": [
        -0.9983620047569275,
        -0.9999148845672607,
        -0.9980846643447876
      ],
      "type": "VEC3"
    },
    {
      "bufferView": 1,
      "byteOffset": 3584872,
      "componentType": 5126,
      "count": 641,
      "max": [
        0.9995049834251404,
        0.9515380263328552
      ],
      "min": [
        0.00012199999764561653,
        0.0005360000068321824
      ],
      "type": "VEC2"
    },
    {
      "bufferView": 0,
      "byteOffset": 5985660,
      "componentType": 5125,
      "count": 1053,
      "type": "SCALAR"
    }
  ],
  "asset": {
    "extras": {
      "author": "artfletch (https://sketchfab.com/artfletch)",
      "license": "CC-BY-4.0 (http://creativecommons.org/licenses/by/4.0/)",
      "source": "https://sketchfab.com/3d-models/hampstead-heath-hollow-oak-65beb43d189f4d11964a57f5559a15a6",
      "title": "Hampstead Heath Hollow Oak"
    },
    "generator": "Sketchfab-16.3.0",
    "version": "2.0"
  },
  "bufferViews": [
    {
      "buffer": 0,
      "byteLength": 5989872,
      "name": "floatBufferViews",
      "target": 34963
    },
    {
      "buffer": 0,
      "byteLength": 3590000,
      "byteOffset": 5989872,
      "byteStride": 8,
      "name": "floatBufferViews",
      "target": 34962
    },
    {
      "buffer": 0,
      "byteLength": 10770000,
      "byteOffset": 9579872,
      "byteStride": 12,
      "name": "floatBufferViews",
      "target": 34962
    }
  ],
  "buffers": [
    {
      "byteLength": 20349872,
      "uri": "scene.bin"
    }
  ],
  "extensionsUsed": [
    "KHR_materials_unlit"
  ],
  "images": [
    {
      "uri": "textures/HampsteadHeathHollowOak01_Model_5HampsteadHeathHollowOak01_Model_5_u1_v1_baseColor.jpeg"
    }
  ],
  "materials": [
    {
      "doubleSided": true,
      "extensions": {
        "KHR_materials_unlit": {}
      },
      "name": "HampsteadHeathHollowOak01_Model_5HampsteadHeathHollowOak01_Model_5_u1_v1",
      "pbrMetallicRoughness": {
        "baseColorTexture": {
          "index": 0
        },
        "metallicFactor": 0.0
      }
    }
  ],
  "meshes": [
    {
      "name": "Object_0",
      "primitives": [
        {
          "attributes": {
            "NORMAL": 1,
            "POSITION": 0,
            "TEXCOORD_0": 2
          },
          "indices": 3,
          "material": 0,
          "mode": 4
        }
      ]
    },
    {
      "name": "Object_1",
      "primitives": [
        {
          "attributes": {
            "NORMAL": 5,
            "POSITION": 4,
            "TEXCOORD_0": 6
          },
          "indices": 7,
          "material": 0,
          "mode": 4
        }
      ]
    },
    {
      "name": "Object_2",
      "primitives": [
        {
          "attributes": {
            "NORMAL": 9,
            "POSITION": 8,
            "TEXCOORD_0": 10
          },
          "indices": 11,
          "material": 0,
          "mode": 4
        }
      ]
    },
    {
      "name": "Object_3",
      "primitives": [
        {
          "attributes": {
            "NORMAL": 13,
            "POSITION": 12,
            "TEXCOORD_0": 14
          },
          "indices": 15,
          "material": 0,
          "mode": 4
        }
      ]
    },
    {
      "name": "Object_4",
      "primitives": [
        {
          "attributes": {
            "NORMAL": 17,
            "POSITION": 16,
            "TEXCOORD_0": 18
          },
          "indices": 19,
          "material": 0,
          "mode": 4
        }
      ]
    },
    {
      "name": "Object_5",
      "primitives": [
        {
          "attributes": {
            "NORMAL": 21,
            "POSITION": 20,
            "TEXCOORD_0": 22
          },
          "indices": 23,
          "material": 0,
          "mode": 4
        }
      ]
    },
    {
      "name": "Object_6",
      "primitives": [
        {
          "attributes": {
            "NORMAL": 25,
            "POSITION": 24,
            "TEXCOORD_0": 26
          },
          "indices": 27,
          "material": 0,
          "mode": 4
        }
      ]
    },
    {
      "name": "Object_7",
      "primitives": [
        {
          "attributes": {
            "NORMAL": 29,
            "POSITION": 28,
            "TEXCOORD_0": 30
          },
          "indices": 31,
          "material": 0,
          "mode": 4
        }
      ]
    },
    {
      "name": "Object_8",
      "primitives": [
        {
          "attributes": {
            "NORMAL": 33,
            "POSITION": 32,
            "TEXCOORD_0": 34
          },
          "indices": 35,
          "material": 0,
          "mode": 4
        }
      ]
    }
  ],
  "nodes": [
    {
      "children": [
        1
      ],
      "matrix": [
        1.0,
        0.0,
        0.0,
        0.0,
        0.0,
        -1.0,
        -4.440892098500626e-16,
        0.0,
        0.0,
        4.440892098500626e-16,
        -1.0,
        0.0,
        0.0,
        0.0,
        0.0,
        1.0
      ],
      "name": "Sketchfab_model"
    },
    {
      "children": [
        2,
        3,
        4,
        5,
        6,
        7,
        8,
        9,
        10
      ],
      "name": "HampsteadHeathHollowOak02.obj.cleaner.materialmerger.gles"
    },
    {
      "mesh": 0,
      "name": "Object_2"
    },
    {
      "mesh": 1,
      "name": "Object_3"
    },
    {
      "mesh": 2,
      "name": "Object_4"
    },
    {
      "mesh": 3,
      "name": "Object_5"
    },
    {
      "mesh": 4,
      "name": "Object_6"
    },
    {
      "mesh": 5,
      "name": "Object_7"
    },
    {
      "mesh": 6,
      "name": "Object_8"
    },
    {
      "mesh": 7,
      "name": "Object_9"
    },
    {
      "mesh": 8,
      "name": "Object_10"
    }
  ],
  "samplers": [
    {
      "magFilter": 9729,
      "minFilter": 9987,
      "wrapS": 10497,
      "wrapT": 10497
    }
  ],
  "scene": 0,
  "scenes": [
    {
      "name": "Sketchfab_Scene",
      "nodes": [
        0
      ]
    }
  ],
  "textures": [
    {
      "sampler": 0,
      "source": 0
    }
  ]
}
